<svg viewBox="0 0 56 69" xmlns="http://www.w3.org/2000/svg">
    <path d="M47.0017129,12.4074708 L45.1495899,62.4147922 C45.117802,63.2730669 44.3619095,64 43.4999672,64 L11.5000255,64 C10.6389427,64 9.8820983,63.2703732 9.8504101,62.4147922 L7.9982871,12.4074708 C7.9471846,11.027705 6.7872367,9.9506105 5.4074708,10.0017129 C4.027705,10.0528154 2.9506105,11.2127633 3.0017129,12.5925292 L4.8538359,62.5998505 C4.9850472,66.1425548 7.9490851,69 11.5000255,69 L43.4999672,69 C47.0490762,69 50.0147533,66.1479424 50.1461641,62.5998505 L51.9982871,12.5925292 C52.0493895,11.2127633 50.972295,10.0528154 49.5925292,10.0017129 C48.2127633,9.9506105 47.0528154,11.027705 47.0017129,12.4074708 Z"></path>
    <path d="M25.5,22.5 L25.5,56.5 C25.5,57.6045695 26.3954305,58.5 27.5,58.5 C28.6045695,58.5 29.5,57.6045695 29.5,56.5 L29.5,22.5 C29.5,21.3954305 28.6045695,20.5 27.5,20.5 C26.3954305,20.5 25.5,21.3954305 25.5,22.5 Z"></path>
    <path d="M14.5008645,22.5587981 L15.5008645,56.5587981 C15.5333378,57.6628902 16.454706,58.5316088 17.5587981,58.4991355 C18.6628902,58.4666622 19.5316088,57.545294 19.4991355,56.4412019 L18.4991355,22.4412019 C18.4666622,21.3371098 17.545294,20.4683912 16.4412019,20.5008645 C15.3371098,20.5333378 14.4683912,21.454706 14.5008645,22.5587981 Z"></path>
    <path d="M36.5008645,22.4412019 L35.5008645,56.4412019 C35.4683912,57.545294 36.3371098,58.4666622 37.4412019,58.4991355 C38.545294,58.5316088 39.4666622,57.6628902 39.4991355,56.5587981 L40.4991355,22.5587981 C40.5316088,21.454706 39.6628902,20.5333378 38.5587981,20.5008645 C37.454706,20.4683912 36.5333378,21.3371098 36.5008645,22.4412019 Z"></path>
    <path d="M2.5,13.5 L52.5,13.5 C53.8807119,13.5 55,12.3807119 55,11 C55,9.6192881 53.8807119,8.5 52.5,8.5 L2.5,8.5 C1.1192881,8.5 0,9.6192881 0,11 C0,12.3807119 1.1192881,13.5 2.5,13.5 Z"></path>
    <path d="M19.9038099,10.1868028 L20.9448153,6.5432839 C21.1677785,5.7629127 22.1793677,5 22.9914967,5 L32.0085033,5 C32.8211505,5 33.8320347,5.7622589 34.0551847,6.5432839 L35.0961901,10.1868028 L39.9038099,8.8131972 L38.8628045,5.1696783 C38.0262772,2.241833 35.0532275,0 32.0085033,0 L22.9914967,0 C19.9471337,0 16.9734928,2.242638 16.1371955,5.1696783 L15.0961901,8.8131972 L19.9038099,10.1868028 Z"></path>
</svg>