<svg xmlns="http://www.w3.org/2000/svg" viewBox="0 0 100 100">
    <path d="M70.9,50.2c0.7,2.5,1,5,1,7.7c0,16.4-13.3,29.7-29.7,29.7S12.4,74.2,12.4,57.8s13.3-29.7,29.7-29.7c2.7,0,5.2,0.4,7.7,1     l7.8-7.8c-4.8-2-10-3.1-15.5-3.1C20.3,18.2,2.5,36,2.5,57.8s17.8,39.7,39.7,39.7s39.7-17.8,39.7-39.7c0-5.5-1.1-10.7-3.1-15.5     L70.9,50.2z"></path>
    <path d="M92.5,2.5H66.9c-2.7,0-5,2.2-5,5s2.2,5,5,5h13.7L38.6,54.3c-1.9,1.9-1.9,5.1,0,7c1,1,2.2,1.5,3.5,1.5     c1.3,0,2.5-0.5,3.5-1.5l41.9-41.9v13.7c0,2.7,2.2,5,5,5s5-2.2,5-5V7.5C97.5,4.7,95.3,2.5,92.5,2.5z"></path>
</svg>