<svg xmlns="http://www.w3.org/2000/svg" viewBox="0 0 640 640">
    <path d="M134.29 0C113.37 0.45 96.76 17.75 97.16 38.67C97.16 95 97.16 545.62 97.16 601.95C96.99 617.39 106.03 631.45 120.14 637.7C133.43 643.5 148.91 640.67 159.29 630.54C174.78 615.87 298.68 498.53 314.16 483.87C317.35 480.63 322.55 480.6 325.78 483.78C325.81 483.81 325.83 483.84 325.86 483.87C341.35 498.53 465.25 615.87 480.74 630.54C491.11 640.67 506.6 643.5 519.88 637.7C533.99 631.44 543.02 617.38 542.84 601.95C542.84 545.62 542.84 95 542.84 38.67C543.24 17.75 526.63 0.45 505.71 0C431.43 0 171.43 0 134.29 0ZM180.72 122.14C173.03 122.14 166.8 115.9 166.8 108.21C166.8 100.52 173.03 94.28 180.72 94.28C208.58 94.28 431.42 94.28 459.28 94.28C466.97 94.28 473.2 100.52 473.2 108.21C473.2 115.9 466.97 122.14 459.28 122.14C403.57 122.14 208.58 122.14 180.72 122.14Z"></path>
</svg>